<svg width="81" height="92" viewBox="0 0 81 92" fill="none" xmlns="http://www.w3.org/2000/svg">
<g clip-path="url(#clip0_450_1043)">
<mask id="mask0_450_1043" style="mask-type:luminance" maskUnits="userSpaceOnUse" x="0" y="11" width="81" height="46">
<path d="M80.2181 11.4312H0.712355C0.318932 11.4312 0 11.7575 0 12.16V55.3067C0 55.7093 0.318932 56.0356 0.712355 56.0356H80.2181C80.6116 56.0356 80.9305 55.7093 80.9305 55.3067V12.16C80.9305 11.7575 80.6116 11.4312 80.2181 11.4312Z" fill="white"/>
</mask>
<g mask="url(#mask0_450_1043)">
<path d="M4.05349e-05 26.7734C0.295407 27.0045 0.590774 27.2356 0.799268 27.5734C0.695021 28.2312 0.451778 28.8534 0.208535 29.4756C1.21626 29.2445 2.32823 29.2978 3.24908 28.7645C3.85718 27.9645 4.3263 27.0756 4.83016 26.2223C5.10815 25.76 5.69888 25.6178 6.16799 25.8845C6.48074 26.08 6.63711 26.4356 6.61973 26.7912C6.58498 27.2889 6.49811 27.7689 6.42861 28.2667C8.20081 27.7867 10.0599 27.6267 11.78 27.0045C13.3089 24.3734 14.0908 21.2089 16.3668 19.0578C16.8186 18.5956 17.4614 18.4178 18.0869 18.5778C18.8514 19.0934 18.7471 20.16 18.6603 20.9778C18.1043 23.7867 16.7143 26.2934 15.4807 28.8356C16.3147 30.5956 17.2529 32.3378 18.139 34.0978C18.3302 33.7778 18.5039 33.4934 18.7124 33.1734C19.0078 32.6756 19.5985 32.4623 20.1371 32.64C20.4846 32.7645 20.7626 32.96 20.7278 33.4045C20.5367 34.5956 19.7896 35.6267 19.668 36.8356C19.9286 37.7423 20.4325 38.56 20.9711 39.3245C21.3533 39.1467 21.5966 38.7734 21.8051 38.4C22.0309 38.0089 22.5348 37.8312 22.9344 38.0445C23.0213 38.08 23.0908 38.1334 23.1603 38.1689C23.5599 38.3645 23.751 38.8445 23.5773 39.2712C23.2298 40.2134 22.7954 41.1556 22.6043 42.1512C23.056 43.4489 24.029 44.5867 24.1332 46.0089C24.307 47.1112 23.9248 48.1778 23.5946 49.1912C20.3282 45.8312 17.3572 42.1689 14.1603 38.7556C13.6217 38.2578 13.0483 37.6 12.2317 37.7067C11.502 37.7067 11.1371 38.4178 10.7549 38.9334C9.66027 40.6934 8.72205 42.5423 7.76645 44.3912C7.33209 45.2089 6.89772 46.0267 6.44599 46.8445C7.36684 48.5689 8.40931 50.2223 9.34753 51.9289C9.03479 52.8712 8.73942 53.8134 8.42668 54.7734C6.96722 53.2623 5.59464 51.6978 4.13518 50.2223C3.68344 50.6845 3.21433 51.1112 2.76259 51.5734C2.76259 50.88 2.83209 50.1867 2.83209 49.5112C1.87649 49.5112 0.938265 49.4578 -0.017334 49.4045V55.9823C8.33981 55.84 16.6796 56.0356 25.0367 55.8578V11.4312H4.05349e-05V26.7556V26.7734Z" fill="#E6E6E6"/>
<path d="M3.70077 45.6534C4.51737 44.7112 4.81274 43.4489 5.26448 42.3112L5.33398 42.1512C6.01158 40.3912 6.82818 38.6667 7.2973 36.8178C7.47104 36.0712 7.55791 34.8801 6.60232 34.6845C4.46525 34.0623 2.20656 34.2223 0 34.1689V46.2223H0.0521236C1.26834 46.0623 2.53668 45.9912 3.71815 45.6356L3.70077 45.6534Z" fill="#E6E6E6"/>
<path d="M55.8418 11.4312V46.2578C56.5715 42.9512 57.0406 39.5912 57.6835 36.2845C60.2028 34.2934 62.8264 32.4267 65.3457 30.4356C64.3901 28.8534 63.226 27.2889 63.1043 25.3512C62.809 22.9512 63.7646 20.4623 65.5194 18.8445C67.6565 16.8 71.0271 16.2489 73.6681 17.5645C77.282 19.2 79.0715 24.0178 77.282 27.6623C76.031 29.9912 74.5715 32.1778 73.2337 34.4534C73.8592 35.1112 74.4847 35.7689 75.1101 36.4445C77.0908 35.1823 78.9325 33.7245 80.948 32.5334V11.4312H55.8592H55.8418Z" fill="#E6E6E6"/>
<path d="M58.9867 39.3776C58.5524 42.2043 57.8921 45.0132 57.562 47.8576C58.1006 47.4843 58.6219 47.0754 59.1605 46.6843C60.9327 45.3865 62.6875 43.9998 64.4597 42.6665C65.0504 39.1998 65.6064 35.7154 66.1971 32.231C64.0775 33.5998 62.1489 35.271 60.0987 36.7643C59.1605 37.2976 59.2126 38.471 59.0041 39.3954L58.9867 39.3776Z" fill="#E6E6E6"/>
<path d="M67.7087 34.3999C67.2396 37.3155 66.7358 40.2488 66.2493 43.1643C68.23 45.0843 69.9848 47.1999 71.9829 49.1021C72.591 45.6177 73.2859 42.151 73.8246 38.6666C74.1199 37.511 72.7995 36.9066 72.174 36.1777C71.5832 37.0843 71.0446 38.0088 70.4713 38.951C69.5331 37.4399 68.647 35.911 67.7087 34.3999Z" fill="#E6E6E6"/>
<path d="M73.9287 48.978C75.6314 47.8402 77.3167 46.7202 78.9673 45.5113C79.6102 45.0313 80.2704 44.5513 80.9306 44.0535V34.7202C79.2453 35.8758 77.4905 36.9424 75.9094 38.2402C75.0407 41.778 74.5194 45.3869 73.9287 48.978Z" fill="#E6E6E6"/>
<path d="M72.4692 52.2133C69.9847 49.6711 67.4828 47.1466 65.033 44.5688C63.504 45.7244 61.9577 46.88 60.4287 48.0533C58.8997 49.2622 57.3013 50.3466 55.8245 51.6266V55.5377C55.8592 55.6444 55.9113 55.7155 55.9461 55.8044C64.2685 55.8933 72.5909 55.8044 80.8959 55.84V46.4888C80.6179 46.6488 80.3573 46.8088 80.0967 46.9866C77.5252 48.7288 75.0059 50.5066 72.4171 52.2311L72.4692 52.2133Z" fill="#E6E6E6"/>
<path d="M74.8844 24.4622C74.8844 24.7645 74.8496 25.0489 74.7975 25.3511C74.7454 25.6356 74.6585 25.92 74.5369 26.2045C74.4326 26.4711 74.2936 26.7378 74.1199 26.9867C73.9461 27.2356 73.7724 27.4667 73.5639 27.68C73.3554 27.8934 73.1295 28.0711 72.8863 28.2489C72.643 28.4089 72.3824 28.5511 72.1218 28.6756C71.8612 28.7822 71.5832 28.8711 71.2878 28.9245C71.0098 28.9778 70.7145 29.0134 70.4191 29.0134C70.1237 29.0134 69.8457 28.9778 69.5504 28.9245C69.2724 28.8711 68.9944 28.7822 68.7164 28.6756C68.4558 28.5689 68.1952 28.4267 67.9519 28.2489C67.7087 28.0889 67.4828 27.8934 67.2743 27.68C67.0658 27.4667 66.8921 27.2356 66.7183 26.9867C66.562 26.7378 66.423 26.4711 66.3013 26.2045C66.1971 25.9378 66.1102 25.6534 66.0407 25.3511C65.9886 25.0667 65.9539 24.7645 65.9539 24.4622C65.9539 24.16 65.9886 23.8756 66.0407 23.5734C66.0929 23.2889 66.1797 23.0045 66.3013 22.72C66.4056 22.4534 66.5446 22.1867 66.7183 21.9378C66.8747 21.6889 67.0658 21.4578 67.2743 21.2445C67.4828 21.0311 67.7087 20.8534 67.9519 20.6756C68.1952 20.5156 68.4558 20.3734 68.7164 20.2489C68.977 20.1422 69.255 20.0534 69.5504 20C69.8457 19.9467 70.1237 19.9111 70.4191 19.9111C70.7145 19.9111 70.9925 19.9467 71.2878 20C71.5658 20.0534 71.8438 20.1422 72.1218 20.2489C72.3824 20.3556 72.643 20.4978 72.8863 20.6756C73.1295 20.8356 73.3554 21.0311 73.5639 21.2445C73.7724 21.4578 73.9461 21.6889 74.1199 21.9378C74.2763 22.1867 74.4153 22.4534 74.5369 22.72C74.6411 22.9867 74.728 23.2711 74.7975 23.5734C74.8496 23.8578 74.8844 24.16 74.8844 24.4622Z" fill="#E6E6E6"/>
<path d="M28.0077 26.8977C28.3899 26.8977 28.7721 26.8977 29.0675 26.6844L29.2065 26.3288C29.2586 26.1866 29.415 26.1155 29.554 26.1688L31.1698 26.7377C31.2914 26.791 31.3783 26.9155 31.3609 27.0577L31.2914 27.5377C31.9343 27.6977 32.5945 27.8399 33.2721 27.9822C33.5327 26.8622 33.5675 25.4755 34.61 24.7822C35.8262 23.8222 37.4073 24.2488 38.7625 24.4977C40.0482 24.7466 41.5077 24.9599 42.3069 26.151C43.1409 27.2177 42.6022 28.6399 42.4632 29.8666C43.1061 29.991 43.7663 30.1155 44.4266 30.2577L44.7741 29.9022C44.8957 29.7777 45.0521 29.7422 45.2084 29.7777C45.5907 29.8666 45.9903 29.9199 46.3725 30.0088C46.5115 30.0444 46.6331 30.1333 46.7026 30.2755C46.7895 30.4355 46.8764 30.631 46.9459 30.7555C47.9362 30.9866 48.9787 31.111 49.8474 31.7155C51.2548 32.6933 52.1061 34.5244 51.7586 36.2666C51.0289 40.3022 50.247 44.3199 49.5173 48.3199C49.1698 49.7422 49.3262 51.591 47.9883 52.4799C46.859 53.2799 45.4864 52.6577 44.2702 52.5155C43.4362 53.6888 42.1158 54.7377 40.6042 54.4177C38.971 54.2577 37.9459 52.7288 37.5984 51.2177C34.4015 50.5777 31.1698 49.9733 27.9729 49.3333V55.911C36.2605 55.9644 44.5656 55.8222 52.8532 55.9822V11.4844H27.9903V26.8977H28.0077Z" fill="#E6E6E6"/>
<path d="M40.6736 26.4179C39.2662 25.8845 37.7199 25.6357 36.2431 25.6001C34.8879 25.6001 34.9226 27.2179 34.7141 28.1957C36.8512 28.6401 38.9709 29.0845 41.1253 29.4934C41.2469 28.4801 41.8898 27.0045 40.6736 26.4179Z" fill="#E6E6E6"/>
<path d="M41.3685 47.4311C43.0191 47.4311 44.1311 48.9244 44.6349 50.3644C45.4168 50.5066 46.1813 50.6488 46.9631 50.7911C47.4844 48.5511 47.8492 46.2577 48.2662 44C48.718 41.5466 49.1871 39.1111 49.6562 36.6577C49.8125 35.7511 49.9863 34.6666 49.3434 33.92C48.857 33.1733 47.9361 32.9777 47.1369 32.8177C45.0519 32.4266 42.9844 32 40.8994 31.5733C40.8994 32.2311 40.9342 32.9066 40.9515 33.5644C41.7855 34.3822 42.5674 35.3422 42.9149 36.4977C43.0365 38.2044 43.0365 39.9288 42.9149 41.6533C42.828 42.7911 41.4728 42.5955 40.6736 42.6311C39.9264 42.5777 38.6581 42.7555 38.5191 41.7244C38.3627 40.32 38.4496 38.9155 38.4322 37.5111C38.3106 35.9288 39.4921 34.7022 40.3956 33.5644C40.3956 32.8533 40.4303 32.16 40.4477 31.4666C36.3125 30.6311 32.16 29.76 28.0249 28.96V47.1466C31.3956 47.7511 34.7662 48.4444 38.1195 49.0844C38.9014 48.1244 40.0133 47.2533 41.3338 47.4133L41.3685 47.4311Z" fill="#E6E6E6"/>
<path d="M40.3956 49.4756C39.3531 50.009 39.2836 51.6623 40.3087 52.2312C41.2643 52.9423 42.828 52.0357 42.6543 50.8268C42.689 49.689 41.3512 48.9601 40.3956 49.4756Z" fill="#E6E6E6"/>
<path d="M41.6293 35.6623C41.6293 35.7868 41.6119 35.8934 41.5598 36.0001C41.5077 36.1068 41.4556 36.1957 41.3687 36.2845C41.2818 36.3734 41.1949 36.4268 41.0907 36.4801C40.9864 36.5334 40.8822 36.5512 40.7606 36.5512C40.6389 36.5512 40.5347 36.5334 40.4305 36.4801C40.3262 36.4446 40.2393 36.3734 40.1525 36.2845C40.0656 36.1957 40.0135 36.1068 39.9613 36.0001C39.9092 35.8934 39.8918 35.7868 39.8918 35.6623C39.8918 35.5379 39.9092 35.4312 39.9613 35.3246C40.0135 35.2179 40.0656 35.129 40.1525 35.0401C40.2393 34.9512 40.3262 34.8979 40.4305 34.8446C40.5347 34.809 40.6389 34.7734 40.7606 34.7734C40.8822 34.7734 40.9864 34.7912 41.0907 34.8446C41.1949 34.8801 41.2818 34.9512 41.3687 35.0401C41.4556 35.129 41.5077 35.2179 41.5598 35.3246C41.6119 35.4312 41.6293 35.5379 41.6293 35.6623Z" fill="#E6E6E6"/>
</g>
<path d="M0.81665 5.03118V0.124512H1.56375C1.99812 0.124512 2.32823 0.160067 2.51935 0.213401C2.81472 0.284512 3.04059 0.444512 3.21433 0.640067C3.38808 0.853401 3.47495 1.10229 3.47495 1.38673C3.47495 1.58229 3.4402 1.74229 3.35333 1.90229C3.28383 2.06229 3.14484 2.20451 2.97109 2.32896C3.26646 2.47118 3.47495 2.64896 3.61395 2.86229C3.75294 3.07562 3.82244 3.32451 3.82244 3.60896C3.82244 3.8934 3.75294 4.14229 3.61395 4.35562C3.47495 4.58673 3.30121 4.74673 3.07534 4.87118C2.84947 4.97784 2.5541 5.03118 2.17186 5.03118H0.81665ZM1.72013 1.0134V2.04451H1.91124C2.13711 2.04451 2.29348 1.99118 2.41511 1.90229C2.51935 1.8134 2.57148 1.67118 2.57148 1.51118C2.57148 1.35118 2.51935 1.22673 2.41511 1.13784C2.31086 1.04896 2.15449 0.995623 1.94599 0.995623H1.70275L1.72013 1.0134ZM1.72013 2.88007V4.14229H1.94599C2.32823 4.14229 2.58885 4.08896 2.71047 4.00007C2.83209 3.91118 2.90159 3.75118 2.90159 3.5734C2.90159 3.36007 2.83209 3.20007 2.67572 3.07562C2.51935 2.95118 2.25874 2.89784 1.91124 2.89784H1.72013V2.88007Z" fill="#E6E6E6"/>
<path d="M8.49607 0C9.17368 0 9.76441 0.248889 10.2509 0.746667C10.7374 1.24444 10.9806 1.86667 10.9806 2.59556C10.9806 3.32444 10.7374 3.91111 10.2509 4.40889C9.76441 4.90667 9.19105 5.15556 8.49607 5.15556C7.80109 5.15556 7.17561 4.90667 6.7065 4.39111C6.23738 3.87556 5.99414 3.27111 5.99414 2.57778C5.99414 2.11556 6.09839 1.67111 6.32426 1.28C6.55013 0.888889 6.84549 0.568889 7.24511 0.337778C7.62735 0.106667 8.04433 0 8.49607 0ZM8.49607 0.906667C8.04433 0.906667 7.67947 1.06667 7.36673 1.38667C7.07136 1.70667 6.91499 2.09778 6.91499 2.59556C6.91499 3.14667 7.10611 3.57333 7.48835 3.89333C7.78372 4.14222 8.13121 4.26667 8.51345 4.26667C8.94781 4.26667 9.31267 4.10667 9.62541 3.78667C9.93816 3.46667 10.0772 3.07556 10.0772 2.59556C10.0772 2.11556 9.92078 1.72444 9.60804 1.40444C9.2953 1.08444 8.93043 0.924444 8.4787 0.924444L8.49607 0.906667Z" fill="#E6E6E6"/>
<path d="M15.6372 0C16.3148 0 16.9055 0.248889 17.392 0.746667C17.8785 1.24444 18.1217 1.86667 18.1217 2.59556C18.1217 3.32444 17.8785 3.91111 17.392 4.40889C16.9055 4.90667 16.3322 5.15556 15.6372 5.15556C14.9422 5.15556 14.3167 4.90667 13.8476 4.39111C13.3785 3.87556 13.1353 3.27111 13.1353 2.57778C13.1353 2.11556 13.2395 1.67111 13.4654 1.28C13.6912 0.888889 13.9866 0.568889 14.3862 0.337778C14.7685 0.106667 15.1854 0 15.6372 0ZM15.6372 0.906667C15.1854 0.906667 14.8206 1.06667 14.5078 1.38667C14.2125 1.70667 14.0561 2.09778 14.0561 2.59556C14.0561 3.14667 14.2472 3.57333 14.6295 3.89333C14.9248 4.14222 15.2723 4.26667 15.6546 4.26667C16.0889 4.26667 16.4538 4.10667 16.7665 3.78667C17.0793 3.46667 17.2183 3.07556 17.2183 2.59556C17.2183 2.11556 17.0619 1.72444 16.7492 1.40444C16.4364 1.08444 16.0715 0.924444 15.6198 0.924444L15.6372 0.906667Z" fill="#E6E6E6"/>
<path d="M20.5366 0.124512H21.4575V1.8134L22.7606 0.124512H23.8552L22.1698 2.31118L24.0115 5.03118H22.9343L21.4575 2.84451V5.03118H20.5366V0.124512Z" fill="#E6E6E6"/>
<path d="M27.6777 0.124512H28.5986L30.4403 5.03118H29.4847L29.1024 4.01784H27.1391L26.7569 5.03118H25.8013L27.6777 0.124512ZM28.1468 1.42229L27.504 3.11118H28.7897L28.1468 1.42229Z" fill="#E6E6E6"/>
<path d="M32.699 0.124512H33.5677L35.6179 3.36007V0.124512H36.5388V5.03118H35.6527L33.6025 1.8134V5.03118H32.6816V0.124512H32.699Z" fill="#E6E6E6"/>
<path d="M39.1797 0.124512H40.2569C40.9519 0.124512 41.4731 0.213401 41.8206 0.391178C42.1681 0.568956 42.4461 0.853401 42.6546 1.26229C42.8805 1.6534 42.9847 2.1334 42.9847 2.66673C42.9847 3.04007 42.9152 3.39562 42.7936 3.71562C42.672 4.03562 42.4982 4.30229 42.2897 4.49784C42.0812 4.6934 41.838 4.8534 41.5947 4.92451C41.3515 4.99562 40.8998 5.04896 40.2917 5.04896H39.1971V0.124512H39.1797ZM40.0832 1.03118V4.12451H40.5002C40.9171 4.12451 41.2125 4.07118 41.4036 3.98229C41.5947 3.87562 41.7511 3.71562 41.8727 3.48451C41.9944 3.2534 42.0465 2.96896 42.0465 2.63118C42.0465 2.11562 41.9075 1.70673 41.6121 1.42229C41.3515 1.15562 40.9345 1.03118 40.3785 1.03118H40.0658H40.0832Z" fill="#E6E6E6"/>
<path d="M45.9905 3.32422C46.2511 3.32422 46.4596 3.41311 46.6507 3.59089C46.8244 3.76866 46.9287 3.99977 46.9287 4.24866C46.9287 4.49755 46.8418 4.72866 46.6507 4.92422C46.477 5.102 46.2511 5.20866 45.9905 5.20866C45.7299 5.20866 45.5214 5.11977 45.3302 4.92422C45.1565 4.74644 45.0522 4.51533 45.0522 4.24866C45.0522 3.982 45.1391 3.76866 45.3302 3.59089C45.504 3.41311 45.7299 3.32422 45.9905 3.32422Z" fill="#E6E6E6"/>
<path d="M49.2046 0.124512H51.8629V1.04896H50.9942V5.03118H50.0733V1.04896H49.222V0.124512H49.2046Z" fill="#E6E6E6"/>
<path d="M53.3572 0.124512H54.3302C54.8688 0.124512 55.2337 0.177845 55.4595 0.266734C55.6854 0.355623 55.8591 0.515623 55.9981 0.746734C56.1371 0.977845 56.2066 1.24451 56.2066 1.54673C56.2066 1.86673 56.1371 2.1334 55.9808 2.36451C55.8244 2.57784 55.5985 2.73784 55.3032 2.86229L56.4325 5.04896H55.4248L54.3476 2.96896H54.2607V5.04896H53.3398V0.124512H53.3572ZM54.2781 2.04451H54.5561C54.8514 2.04451 55.0425 2.00896 55.1642 1.92007C55.2684 1.84896 55.3205 1.70673 55.3205 1.52896C55.3205 1.42229 55.2858 1.3334 55.2337 1.24451C55.1815 1.1734 55.112 1.10229 55.0078 1.06673C54.9209 1.03118 54.7472 1.0134 54.5039 1.0134H54.2607V2.02673L54.2781 2.04451Z" fill="#E6E6E6"/>
<path d="M60.1853 0.124512H61.1061L62.9478 5.03118H61.9922L61.61 4.01784H59.6467L59.2644 5.03118H58.3088L60.1679 0.124512H60.1853ZM60.6544 1.42229L60.0115 3.11118H61.2973L60.6544 1.42229Z" fill="#E6E6E6"/>
<path d="M64.8245 0.124512H65.7627L66.9789 3.60896L68.2125 0.124512H69.1507L67.4133 5.03118H66.5272L64.8245 0.124512Z" fill="#E6E6E6"/>
<path d="M71.4092 0.124512H74.0327V1.03118H72.3127V1.92007H74.0327V2.82673H72.3127V4.12451H74.0327V5.04896H71.4092V0.124512Z" fill="#E6E6E6"/>
<path d="M76.4307 0.124512H77.3515V4.14229H78.6894V5.03118H76.448V0.124512H76.4307Z" fill="#E6E6E6"/>
<path d="M4.48255 91.0223H0.660156V62.7734H11.5192C12.5791 62.7734 13.5868 62.9868 14.5424 63.3957C15.4806 63.8045 16.3146 64.3734 17.0096 65.0845C17.7046 65.7957 18.2605 66.649 18.6602 67.609C19.0598 68.569 19.2683 69.6001 19.2683 70.6845C19.2683 71.289 19.1814 71.9112 18.9903 72.569C18.8165 73.2268 18.5733 73.8134 18.2779 74.3645C17.9826 74.9157 17.6351 75.3601 17.2702 75.7334C16.888 76.089 16.4883 76.2845 16.0714 76.3201C16.1582 76.3201 16.2798 76.3201 16.4362 76.3557C16.5926 76.3912 16.749 76.409 16.9227 76.4623C17.0964 76.5157 17.2702 76.5868 17.4439 76.6579C17.6177 76.729 17.7741 76.8357 17.9131 76.9779C18.6775 77.7245 19.3204 78.5957 19.8242 79.609C20.3281 80.6223 20.5714 81.7068 20.5714 82.8979C20.5714 84.089 20.3629 85.0845 19.9459 86.0623C19.5289 87.0401 18.9555 87.9112 18.2432 88.6401C17.5308 89.369 16.6795 89.9557 15.7239 90.3823C14.7683 90.809 13.7258 91.0223 12.6312 91.0223H4.48255ZM4.48255 66.6845V74.7379H11.5192C12.0578 74.7379 12.5617 74.6312 13.0482 74.4179C13.5347 74.2045 13.9517 73.9201 14.3165 73.5468C14.6814 73.1734 14.9594 72.7468 15.1679 72.2668C15.3764 71.7868 15.4806 71.2534 15.4806 70.7023C15.4806 70.1512 15.3764 69.6357 15.1679 69.1379C14.9594 68.6401 14.6814 68.2134 14.3165 67.8401C13.9517 67.4668 13.5347 67.1823 13.0482 66.969C12.5617 66.7557 12.0578 66.649 11.5192 66.649H4.48255V66.6845ZM12.6312 87.129C13.2046 87.129 13.7432 87.0223 14.247 86.7912C14.7509 86.5601 15.1853 86.2579 15.5501 85.8668C15.915 85.4757 16.2104 85.0312 16.4362 84.5157C16.6621 84.0001 16.7663 83.449 16.7663 82.8801C16.7663 82.3112 16.6621 81.7601 16.4362 81.2445C16.2104 80.729 15.915 80.2845 15.5501 79.8934C15.1853 79.5023 14.7335 79.2001 14.247 78.9868C13.7432 78.7557 13.2219 78.649 12.6486 78.649H4.48255V87.129H12.6312Z" fill="#E6E6E6" stroke="#E6E6E6" stroke-width="0.77" stroke-miterlimit="10"/>
<path d="M43.5058 80.1422L45.3475 82.0267L47.4151 79.1822C47.78 78.5956 48.2665 78.1511 48.8224 77.8489C49.3958 77.5467 50.056 77.4044 50.8031 77.4044H53.4267L48.0753 84.7822L54.2259 91.0044H51.2723C50.751 91.0044 50.3167 90.9689 49.9344 90.88C49.5522 90.7911 49.2221 90.6844 48.9267 90.5422C48.6313 90.4 48.3533 90.2044 48.0927 89.9911C47.8321 89.7778 47.5715 89.5289 47.2761 89.2267L45.695 87.6267C44.5309 88.8356 43.2626 89.7422 41.9074 90.3644C40.5522 90.9867 39.1275 91.2889 37.6159 91.2889C36.3302 91.2889 35.1313 91.0578 34.0367 90.6133C32.9248 90.1689 31.9692 89.5467 31.1526 88.7467C30.336 87.9644 29.6931 87.04 29.2414 85.9733C28.7723 84.9067 28.5464 83.7689 28.5464 82.5422C28.5464 81.8667 28.6333 81.1911 28.807 80.5156C28.9807 79.8578 29.224 79.2178 29.5367 78.5955C29.8495 77.9733 30.2317 77.4044 30.6835 76.8533C31.1352 76.32 31.6391 75.84 32.2124 75.4133C32.334 75.3067 32.4904 75.2533 32.6989 75.2533C32.9074 75.2533 33.1333 75.3244 33.3591 75.4489C33.6024 75.5733 33.863 75.7155 34.141 75.8933C33.4113 75.1467 32.8553 74.2933 32.473 73.3333C32.0908 72.3733 31.8997 71.36 31.8997 70.2755C31.8997 69.12 32.1082 68.0533 32.5078 67.1111C32.9074 66.1511 33.4634 65.3333 34.141 64.64C34.8186 63.9467 35.6004 63.4133 36.5039 63.0222C37.39 62.6311 38.3282 62.4355 39.3012 62.4355C39.5445 62.4355 39.8224 62.4355 40.1873 62.4711C41.2298 62.5778 42.1333 62.6667 43.141 63.0933C43.5058 63.2533 44.6873 63.8044 45.7298 65.0667C46.0773 65.4933 46.6333 66.1689 46.9634 67.2355C47.3977 68.6578 47.1545 69.8489 47.0329 70.4C46.8939 71.0222 46.7723 71.5556 46.3379 72.0711C46.251 72.1778 45.7472 72.7644 44.9132 72.9956C44.7568 73.0311 44.6004 73.0667 43.2974 73.12C42.863 73.12 42.5155 73.1378 42.2896 73.1556C42.446 72.9956 43.836 71.4311 43.4537 69.3156C43.1931 67.9111 42.307 67.0933 42.0116 66.8267C42.0116 66.8267 40.5869 65.6178 38.3456 66.3289C37.7896 66.5067 37.3379 66.8267 37.3379 66.8267C37.1294 66.9689 36.9383 67.1289 36.7645 67.3244C36.417 67.68 36.1564 68.1244 35.9479 68.6222C35.7394 69.12 35.6352 69.6889 35.6352 70.3111C35.6352 70.8089 35.7221 71.3244 35.9132 71.84C36.1043 72.3733 36.417 72.8533 36.8688 73.3156L43.558 80.1067L43.5058 80.1422ZM40.4827 82.3467L35.9132 77.7067C35.3919 77.8844 34.9228 78.1333 34.4711 78.4533C34.0194 78.7733 33.6371 79.1289 33.2896 79.5555C32.9595 79.9644 32.6989 80.4267 32.5078 80.9422C32.3167 81.4578 32.2124 81.9911 32.2124 82.56C32.2124 83.3955 32.3688 84.1422 32.6641 84.7644C32.9595 85.3867 33.3591 85.9022 33.863 86.3289C34.3668 86.7378 34.9402 87.0578 35.6004 87.2711C36.2607 87.4844 36.9209 87.5911 37.6159 87.5911C39.614 87.5911 41.4383 86.7378 43.0889 85.0489L40.4653 82.3644L40.4827 82.3467Z" fill="#E6E6E6" stroke="#E6E6E6" stroke-width="0.77" stroke-miterlimit="10"/>
<path d="M59.3513 66.6665V62.7554H80.3224V66.6665H71.7567V91.022H67.9343V66.6665H59.3513Z" fill="#E6E6E6" stroke="#E6E6E6" stroke-width="0.77" stroke-miterlimit="10"/>
</g>
<defs>
<clipPath id="clip0_450_1043">
<rect width="81" height="92" fill="white"/>
</clipPath>
</defs>
</svg>
